PathFileType	4	(X/Y/Z)	C:\Users\chris\Documents\GitHub\baseballds\vids\pitch4_Sports2D\pitch4_Sports2D_px_person00.trc
DataRate	CameraRate	NumFrames	NumMarkers	Units	OrigDataRate	OrigDataStartFrame	OrigNumFrames
30	30	5	22	m	30	178	238
Frame#	Time	Hip			RHip			RKnee			RAnkle			RBigToe			RSmallToe			RHeel			LHip			LKnee			LAnkle			LBigToe			LSmallToe			LHeel			Neck			Head			Nose			RShoulder			RElbow			RWrist			LShoulder			LElbow			LWrist		
		X1	Y1	Z1	X2	Y2	Z2	X3	Y3	Z3	X4	Y4	Z4	X5	Y5	Z5	X6	Y6	Z6	X7	Y7	Z7	X8	Y8	Z8	X9	Y9	Z9	X10	Y10	Z10	X11	Y11	Z11	X12	Y12	Z12	X13	Y13	Z13	X14	Y14	Z14	X15	Y15	Z15	X16	Y16	Z16	X17	Y17	Z17	X18	Y18	Z18	X19	Y19	Z19	X20	Y20	Z20	X21	Y21	Z21	X22	Y22	Z22
178	5.933333333333334	285.46302144443496	1064.9333356725385	0.0	232.0932996509231	1107.0821377869556	0.0	282.8782149229604	1429.0677555859882	0.0	262.5132611534988	1732.5903804906357	0.0	414.41661906443017	1777.802414091308	0.0	379.97131295398856	1795.7661876008272	0.0	238.56275106933347	1776.8352154361535	0.0	347.67989902174594	1078.7587540211855	0.0	569.3197962011369	1222.1194320144614	0.0	524.140476701202	1523.1121632135266	0.0	662.774570012143	1573.2778015669019	0.0	656.2858172052436	1564.2707452320412	0.0	493.0303136909729	1571.6364591904435	0.0	260.6589196383105	639.234889808976	0.0	296.81837444891636	454.5706756148846	0.0	378.0391896056423	555.1789390511618	0.0	180.28059912396603	717.7982336281223	0.0	287.92884439672605	918.5338902568792	0.0	439.70918899768253	784.5037105236327	0.0	332.8641320624666	718.3619403299048	0.0	415.2779339344884	930.0800969436543	0.0	475.48853511816424	841.1564937615494	0.0
179	5.966666666666667	285.4261700718882	1059.2946264487937	0.0	233.01076055143326	1103.5200310104178	0.0	283.17494338659253	1428.6372942329535	0.0	261.22374349588245	1732.455579378716	0.0	414.6703814454877	1776.464913213434	0.0	385.95594453996404	1794.4272376198633	0.0	237.36627328719487	1774.378681003422	0.0	350.62544341421614	1068.3796664686276	0.0	590.0469432030425	1162.3628131891132	0.0	580.6548124420294	1473.6848960686461	0.0	729.9693026128743	1508.2391122793765	0.0	721.9965927539058	1503.6933583465732	0.0	552.4305262135704	1530.5375206272674	0.0	256.90154699271733	638.7483184975849	0.0	294.53247617021776	453.8321313154968	0.0	376.1769625487187	554.7294860063575	0.0	172.20987706104336	714.1752317194965	0.0	291.3796850441016	905.5449505834981	0.0	432.9502169668581	755.1984086630359	0.0	330.08722097235693	716.2190205490997	0.0	424.98257099087766	922.9293949309499	0.0	484.0331839597617	816.0520504901053	0.0
180	6.0	287.59060188066724	1053.1793598283464	0.0	237.03930863334398	1094.8823324700431	0.0	284.0887413830662	1427.899222829254	0.0	259.29838951731824	1732.7350119077669	0.0	416.11423747066215	1772.571188197036	0.0	394.60748630968203	1791.0363635195215	0.0	236.13127491813248	1772.7499006061178	0.0	356.2290931134788	1054.9163891175303	0.0	600.5491997089812	1093.2821994556173	0.0	626.003728238599	1408.159687561151	0.0	788.6095065498871	1426.3338677213492	0.0	778.3090615020845	1424.3126297993963	0.0	602.1913979279337	1473.8535729769037	0.0	255.05552720249474	640.4696787376256	0.0	292.8126609773847	454.91247477611034	0.0	375.49393030768766	557.3071126291459	0.0	167.1329010589122	712.0922463526117	0.0	297.5301238966408	894.640066738852	0.0	423.38993189805353	729.5201657051406	0.0	328.0167801354155	715.7068125230941	0.0	431.01672425958054	913.4507557509932	0.0	492.42156443952905	784.9732824130205	0.0
181	6.033333333333333	291.2223381648596	1047.435530738502	0.0	243.26321879481185	1086.0354487561797	0.0	285.04762761366067	1427.7819008096833	0.0	257.54953293033225	1733.1765392677266	0.0	416.62553723711903	1767.9214527786066	0.0	399.85140823283837	1787.370038015973	0.0	235.2759884905787	1774.2040574912298	0.0	361.536178374662	1043.6832555666367	0.0	598.9501944977513	1019.9813541480695	0.0	656.3431523410652	1335.982547426122	0.0	826.7107819505123	1334.8698753143683	0.0	816.1266920006793	1335.7829347723623	0.0	636.6766392349538	1409.1544301042034	0.0	254.61288525923058	643.8538404831775	0.0	292.6021587529813	457.4238120479848	0.0	374.9944770643111	562.009696510318	0.0	163.7855187043225	712.8986513934803	0.0	305.084862639609	883.6704877152857	0.0	412.54072455965746	708.4377079619487	0.0	328.07997848655566	715.0626768520453	0.0	439.2638423865739	899.4742188273731	0.0	500.2814098732585	757.8074639327804	0.0
182	6.066666666666666	295.02039012383506	1043.37518602671	0.0	250.03358764169073	1082.4691919637621	0.0	285.22171819186605	1430.2327091205066	0.0	256.98840351922433	1733.2283475182412	0.0	415.8018317123592	1764.877017450594	0.0	400.03155464472457	1784.5993990445847	0.0	235.5651941200867	1777.7506614622941	0.0	364.1740985394724	1038.5196335576534	0.0	586.5403580554455	950.6327233176662	0.0	671.0181342861902	1262.966208240881	0.0	839.0176240526282	1242.5758216639506	0.0	831.0945589464818	1248.378375502129	0.0	655.7029974649688	1341.4233696831295	0.0	255.2777168936439	646.1718702706105	0.0	294.02585680973544	459.7799940699921	0.0	375.0383109766101	567.1080899308535	0.0	161.1924431459486	713.9705547629349	0.0	312.883390301548	870.1241155647191	0.0	403.2020070116963	691.2889914823163	0.0	329.86529348864116	713.3182047825551	0.0	454.8613696701422	881.4961167908771	0.0	508.56918377954776	739.5614786484646	0.0
